# xmcd
#
# Track frame offsets:
#	150
#	21882
#	40330
#	64936
#	84454
#	101200
#	126288
#	144816
#	162624
#	194269
#	211375
#	223307
#	243183
#	258924
#	281986
#	302154
#	332969
#
# Disc length: 4721 seconds
#
# Revision: 0
# Processed by: cddbd v1.4PL0 Copyright (c) Steve Scherf et al.
# Submitted via: audiograbber 1.80.04
#
DISCID=0b126f11
DTITLE=max - max mix
DYEAR=1900
DGENRE=Darkwave
TTITLE0=Red Hot and Indigo - 14 - Terry Callier - Satin_Doll
TTITLE1=omar - golden brown
TTITLE2=Father
TTITLE3=eleclady
TTITLE4=blueeyes
TTITLE5=Maxwell - Now - Lifetime
TTITLE6=Nelly Furtado - I'm Like a Bird
TTITLE7=omar - the world of you
TTITLE8=The Christians - Words
TTITLE9=Macy Gray - Sweet Baby
TTITLE10=Busta Rhymes - Give Me Some More
TTITLE11=Korn - Falling Away From Me
TTITLE12=fine young cannibals - Funny how love is
TTITLE13=Cranberries - Zoombie
TTITLE14=DMX - Party Up
TTITLE15=Lisa Lisa and Cult Jam - Can You Feel the Beat
TTITLE16=The Roots - do you want more-!!!--! - Mellow My Man - 04
EXTD=
EXTT0=
EXTT1=
EXTT2=
EXTT3=
EXTT4=
EXTT5=
EXTT6=
EXTT7=
EXTT8=
EXTT9=
EXTT10=
EXTT11=
EXTT12=
EXTT13=
EXTT14=
EXTT15=
EXTT16=
PLAYORDER=
